<?xml version="1.0" encoding="utf-8"?>
<!-- Generator: Adobe Illustrator 19.1.0, SVG Export Plug-In . SVG Version: 6.00 Build 0)  -->
<svg version="1.1" id="Layer_1" xmlns="http://www.w3.org/2000/svg" xmlns:xlink="http://www.w3.org/1999/xlink" x="0px" y="0px"
	 viewBox="0 0 14.1 11.5" width="13.6" height="11" style="enable-background:new 0 0 14.1 11.5;" xml:space="preserve">
<style type="text/css">
	.st0{fill:#FFFFFF;}
</style>
<path class="st0" d="M13.8,1.6c-0.5,0.2-1,0.4-1.6,0.4c0.6-0.3,1-0.9,1.2-1.5c-0.5,0.3-1.1,0.5-1.8,0.7c-0.5-0.5-1.2-0.9-2-0.9
	C8.1,0.3,6.8,1.5,6.8,3c0,0.2,0,0.4,0.1,0.6C4.6,3.6,2.5,2.5,1.2,0.8C0.9,1.2,0.8,1.7,0.8,2.2c0,1,0.5,1.8,1.2,2.3
	c-0.5,0-0.9-0.1-1.3-0.3c0,0,0,0,0,0c0,1.3,1,2.5,2.2,2.7C2.8,7,2.5,7,2.3,7c-0.2,0-0.4,0-0.5,0C2.1,8,3.1,8.8,4.3,8.9
	c-1,0.7-2.1,1.2-3.4,1.2c-0.2,0-0.4,0-0.7,0c1.2,0.8,2.7,1.2,4.3,1.2c5.1,0,7.9-4.2,7.9-7.9c0-0.1,0-0.2,0-0.4
	C12.9,2.6,13.4,2.1,13.8,1.6z"/>
</svg>
