<?xml version="1.0" encoding="UTF-8"?>
<svg id="Layer_6" data-name="Layer 6" xmlns="http://www.w3.org/2000/svg" viewBox="0 0 73.8 73.8">
  <defs>
    <style>
      .cls-1 {
        fill: #7c53a2;
      }

      .cls-2 {
        fill: #f37047;
      }
    </style>
  </defs>
  <g id="g339">
    <g id="g341">
      <g id="g343">
        <g id="g349">
          <g id="path351">
            <path class="cls-2" d="M66.51,72.9H7.3c-3.45,0-6.25-2.8-6.25-6.25V18.99c0-.19.14-.33.33-.33h71.04c.19,0,.33.14.33.33v47.66c0,3.45-2.8,6.25-6.24,6.25ZM1.71,19.32v47.33c0,3.08,2.51,5.59,5.59,5.59h59.2c3.08,0,5.58-2.51,5.58-5.59V19.32H1.71Z"/>
          </g>
        </g>
        <g id="g353">
          <g id="path355">
            <path class="cls-2" d="M72.42,19.32H1.38c-.19,0-.33-.14-.33-.33V7.15C1.05,3.71,3.85.9,7.3.9h59.2c3.44,0,6.24,2.81,6.24,6.25v11.84c0,.19-.14.33-.33.33ZM1.71,18.66h70.38V7.15c0-3.08-2.5-5.59-5.58-5.59H7.3C4.22,1.56,1.71,4.07,1.71,7.15v11.51Z"/>
          </g>
        </g>
        <g id="g357">
          <g id="path359">
            <path class="cls-2" d="M60.58,64.02c-.19,0-.33-.14-.33-.33V27.87c0-.19.14-.33.33-.33s.33.14.33.33v35.82c0,.19-.14.33-.33.33Z"/>
          </g>
        </g>
        <g id="g361">
          <g id="path363">
            <path class="cls-2" d="M63.54,52.18h-5.91c-.19,0-.33-.14-.33-.33s.14-.33.33-.33h5.91c.19,0,.33.14.33.33s-.14.33-.33.33Z"/>
          </g>
        </g>
        <g id="g365">
          <g id="path367">
            <path class="cls-2" d="M48.75,64.02c-.19,0-.33-.14-.33-.33V27.87c0-.19.14-.33.33-.33s.33.14.33.33v35.82c0,.19-.14.33-.33.33Z"/>
          </g>
        </g>
        <g id="g369">
          <g id="path371">
            <path class="cls-2" d="M51.7,40.34h-5.92c-.19,0-.33-.14-.33-.33s.14-.33.33-.33h5.92c.19,0,.33.14.33.33s-.14.33-.33.33Z"/>
          </g>
        </g>
        <g id="g373">
          <g id="path375">
            <path class="cls-2" d="M36.9,64.02c-.19,0-.33-.14-.33-.33V27.87c0-.19.14-.33.33-.33s.33.14.33.33v35.82c0,.19-.14.33-.33.33Z"/>
          </g>
        </g>
        <g id="g377">
          <g id="path379">
            <path class="cls-2" d="M39.87,52.18h-5.92c-.19,0-.33-.14-.33-.33s.14-.33.33-.33h5.92c.19,0,.33.14.33.33s-.14.33-.33.33Z"/>
          </g>
        </g>
        <g id="g381">
          <g id="path383">
            <path class="cls-2" d="M13.22,64.02c-.19,0-.33-.14-.33-.33V27.87c0-.19.14-.33.33-.33s.33.14.33.33v35.82c0,.19-.14.33-.33.33Z"/>
          </g>
        </g>
        <g id="g385">
          <g id="path387">
            <path class="cls-2" d="M16.18,52.18h-5.92c-.19,0-.33-.14-.33-.33s.14-.33.33-.33h5.92c.19,0,.33.14.33.33s-.14.33-.33.33Z"/>
          </g>
        </g>
        <g id="g389">
          <g id="path391">
            <path class="cls-2" d="M25.06,64.02c-.19,0-.33-.14-.33-.33V27.87c0-.19.14-.33.33-.33s.33.14.33.33v35.82c0,.19-.14.33-.33.33Z"/>
          </g>
        </g>
        <g id="g393">
          <g id="path395">
            <path class="cls-2" d="M28.02,40.34h-5.91c-.19,0-.33-.14-.33-.33s.14-.33.33-.33h5.91c.19,0,.33.14.33.33s-.14.33-.33.33Z"/>
          </g>
        </g>
        <g id="g405">
          <g id="path407">
            <path class="cls-1" d="M56.48,10.11c0,2.16-1.75,3.91-3.91,3.91s-3.91-1.75-3.91-3.91,1.75-3.91,3.91-3.91,3.91,1.75,3.91,3.91"/>
          </g>
        </g>
        <g id="g409">
          <g id="path411">
            <path class="cls-1" d="M40.82,10.11c0,2.16-1.75,3.91-3.91,3.91s-3.91-1.75-3.91-3.91,1.75-3.91,3.91-3.91,3.91,1.75,3.91,3.91"/>
          </g>
        </g>
        <g id="g413">
          <g id="path415">
            <path class="cls-1" d="M25.16,10.11c0,2.16-1.75,3.91-3.91,3.91s-3.91-1.75-3.91-3.91,1.75-3.91,3.91-3.91,3.91,1.75,3.91,3.91"/>
          </g>
        </g>
      </g>
    </g>
  </g>
</svg>