<?xml version="1.0" encoding="utf-8"?>
<!-- Generator: Adobe Illustrator 19.1.0, SVG Export Plug-In . SVG Version: 6.00 Build 0)  -->
<svg version="1.1" id="Layer_1" xmlns="http://www.w3.org/2000/svg" xmlns:xlink="http://www.w3.org/1999/xlink" x="0px" y="0px"
	 viewBox="0 0 14.5 14.9" width="14" height="14.3" style="enable-background:new 0 0 14.5 14.9;" xml:space="preserve">
<style type="text/css">
	.st0{fill:#FFFFFF;}
</style>
<path class="st0" d="M11.9,10.1c-0.5,0-1,0.2-1.3,0.4L4.8,7.4c0,0,0-0.1,0-0.1l5.7-2.8c0.4,0.3,0.8,0.5,1.3,0.5
	c1.3,0,2.4-1.1,2.4-2.4c0-1.2-1-2.2-2.2-2.2c-1.3,0-2.4,1-2.4,2.3L3.8,5.5C3.4,5.3,3,5.2,2.5,5.2c-1.3,0-2.3,1-2.3,2.3
	s1,2.3,2.3,2.3c0.6,0,1.1-0.2,1.5-0.6l5.6,3.1c0,0,0,0.1,0,0.1c0,1.3,1,2.3,2.3,2.3s2.3-1,2.3-2.3S13.2,10.1,11.9,10.1z"/>
</svg>
